name C:\Users\u0101727\Documents\MyRepositories\upper-imu-dc\Results\main_tracking\Case_22\SHRUG01_linearAccelerations_bodyFrame.mot
datacolumns 4
datarows 70
range 0.71000000 1.40000000
endheader 
time	radius_imu_x	radius_imu_y	radius_imu_z	
          0.71000000	         -9.34166689	          9.96874572	          8.21942316	
          0.72000000	         -6.83403811	          9.65569288	          6.39331492	
          0.73000000	         -5.21272593	          9.52765772	          5.12508234	
          0.74000000	         -4.26337467	          9.44998352	          4.26067273	
          0.75000000	         -3.83101105	          9.39787005	          3.68239716	
          0.76000000	         -3.76989014	          9.36801117	          3.29610797	
          0.77000000	         -3.95184829	          9.36701535	          3.02318435	
          0.78000000	         -4.27481768	          9.40107283	          2.79174110	
          0.79000000	         -4.66093035	          9.46361916	          2.52162420	
          0.80000000	         -5.02677380	          9.53168287	          2.11408147	
          0.81000000	         -5.25934662	          9.57347076	          1.44654711	
          0.82000000	         -5.10167844	          9.51132474	          0.33193867	
          0.83000000	         -4.26391836	          9.40463103	         -1.27684063	
          0.84000000	         -0.88818322	          8.52229073	         -3.80723024	
          0.85000000	          0.90721738	          8.59675195	         -4.32162055	
          0.86000000	         -1.78047071	          9.32992714	         -0.78751972	
          0.87000000	         -2.50293291	          9.28058738	          2.55628077	
          0.88000000	         -3.07571556	         10.20627561	          5.28806662	
          0.89000000	         -2.80705502	         10.11425584	          7.11621214	
          0.90000000	          0.47841122	          9.56829692	          6.14965975	
          0.91000000	          3.35641243	         10.15935330	          5.60603869	
          0.92000000	          2.13818140	         10.17343295	          7.58029501	
          0.93000000	          0.48063845	         10.36050310	          9.56892142	
          0.94000000	          0.97921737	         10.26470910	          9.03582530	
          0.95000000	          1.32183862	         10.43385993	          8.00020696	
          0.96000000	         -0.61613758	         10.91394314	          7.02917932	
          0.97000000	         -0.06855895	         10.45699833	          3.88734910	
          0.98000000	         -0.19096227	         10.65700649	          1.16814522	
          0.99000000	         -0.06628602	         10.12217854	         -1.32332799	
          1.00000000	         -4.33697029	         10.26039445	         -0.91433902	
          1.01000000	         -5.69618296	         10.00918125	          0.50481357	
          1.02000000	         -6.41005753	          9.80903939	          1.93847586	
          1.03000000	         -6.44440872	          9.65233239	          3.27653069	
          1.04000000	         -6.06287686	          9.50567829	          4.31224732	
          1.05000000	         -5.44344243	          9.38125650	          4.92722935	
          1.06000000	         -4.61751597	          9.27708981	          5.00969624	
          1.07000000	         -3.47289033	          9.21186142	          4.47719430	
          1.08000000	         -1.72251115	          9.23194667	          3.29048547	
          1.09000000	          1.24402959	          9.48807142	          1.55653109	
          1.10000000	          5.71780870	          8.59431550	         -0.37829119	
          1.11000000	          2.83953054	          8.50057894	          1.38917581	
          1.12000000	         -0.22959243	          8.99916415	          3.47423520	
          1.13000000	         -2.12055173	          9.08772967	          4.55930057	
          1.14000000	         -3.44631661	          9.24260464	          5.01914719	
          1.15000000	         -4.32662790	          9.30916315	          5.02466070	
          1.16000000	         -4.85729736	          9.29932393	          4.80683953	
          1.17000000	         -5.07658643	          9.23919093	          4.51806983	
          1.18000000	         -5.02414482	          9.17202499	          4.24915082	
          1.19000000	         -4.75053898	          9.13167658	          4.03600649	
          1.20000000	         -4.32036293	          9.13337306	          3.87626363	
          1.21000000	         -3.80766011	          9.17181279	          3.74472207	
          1.22000000	         -3.28675498	          9.22714246	          3.60763542	
          1.23000000	         -2.82221156	          9.27509130	          3.43428503	
          1.24000000	         -2.46211586	          9.29570034	          3.20433540	
          1.25000000	         -2.23641497	          9.27707995	          2.91041082	
          1.26000000	         -2.15903294	          9.21453297	          2.55665347	
          1.27000000	         -2.23093441	          9.10798084	          2.15527132	
          1.28000000	         -2.44166216	          8.96068776	          1.72332990	
          1.29000000	         -2.76843338	          8.78026365	          1.28098464	
          1.30000000	         -3.17447053	          8.58047458	          0.85095252	
          1.31000000	         -3.61066498	          8.38117284	          0.45804762	
          1.32000000	         -4.02297273	          8.20440226	          0.12736305	
          1.33000000	         -4.36319812	          8.06756547	         -0.11940559	
          1.34000000	         -4.59840744	          7.97767122	         -0.26797954	
          1.35000000	         -4.71465528	          7.93055748	         -0.31314525	
          1.36000000	         -4.71396042	          7.91514282	         -0.25714209	
          1.37000000	         -4.60846188	          7.91933304	         -0.10674941	
          1.38000000	         -4.41603838	          7.93384492	          0.12843077	
          1.39000000	         -4.15891180	          7.95288191	          0.43679216	
          1.40000000	         -3.86240382	          7.97074679	          0.80486037	
